<?xml version="1.0" encoding="UTF-8" standalone="no"?>
<svg
   xmlns:dc="http://purl.org/dc/elements/1.1/"
   xmlns:cc="http://creativecommons.org/ns#"
   xmlns:rdf="http://www.w3.org/1999/02/22-rdf-syntax-ns#"
   xmlns:svg="http://www.w3.org/2000/svg"
   xmlns="http://www.w3.org/2000/svg"
   viewBox="0 0 448 77.400003"
   height="77.400002"
   width="448"
   xml:space="preserve"
   id="svg29"
   version="1.1"><metadata
     id="metadata35"><rdf:RDF><cc:Work
         rdf:about=""><dc:format>image/svg+xml</dc:format><dc:type
           rdf:resource="http://purl.org/dc/dcmitype/StillImage" /><dc:title></dc:title></cc:Work></rdf:RDF></metadata><defs
     id="defs33" /><g
     transform="matrix(1.3333333,0,0,-1.3333333,0,77.400002)"
     id="g37"><path
       id="path39"
       style="fill:#000000;fill-opacity:1;fill-rule:nonzero;stroke:none;stroke-width:0.75007033"
       d="m 23.738226,58.053194 c 6.975654,0 14.176329,-4.275401 18.113449,-10.688502 l -5.962309,-5.287246 c -3.712849,4.724693 -7.538207,6.638122 -11.812858,6.638122 -7.425697,0 -13.726287,-7.538207 -13.726287,-19.689346 0,-12.150389 6.30059,-19.6878462 13.726287,-19.6878462 4.274651,0 8.100009,2.0244402 11.812858,6.6373722 l 5.962309,-5.174735 C 37.914555,4.2754013 30.71388,3.5559083e-7 23.738226,3.5559083e-7 9.5633968,3.5559083e-7 0,13.050474 0,29.026222 0,45.00272 9.5633968,58.053194 23.738226,58.053194" /><path
       id="path41"
       style="fill:#000000;fill-opacity:1;fill-rule:nonzero;stroke:none;stroke-width:0.75007033"
       d="M 62.105824,0.90008479 H 52.655688 V 36.564429 c 0,13.838048 8.437541,21.488765 18.788512,21.488765 10.35022,0 18.788512,-7.650717 18.788512,-21.488765 V 0.90008479 H 80.781825 V 19.688596 H 62.105824 Z M 80.781825,36.564429 c 0,8.21327 -4.16289,12.151139 -9.337625,12.151139 -5.175486,0 -9.338376,-3.937869 -9.338376,-12.151139 v -7.538207 h 18.676001 v 7.538207" /><path
       id="path43"
       style="fill:#000000;fill-opacity:1;fill-rule:nonzero;stroke:none;stroke-width:0.75007033"
       d="m 143.78848,38.364598 c 0,-10.23846 -8.43829,-18.676002 -18.676,-18.676002 -0.90008,0 -11.25105,0 -11.25105,0 V 0.90008479 h -9.45014 V 57.15311 h 20.70119 c 10.23771,0 18.676,-8.437542 18.676,-18.788512 z m -9.33837,0 c 0,5.175485 -4.16289,9.450136 -9.33763,9.450136 -1.01259,0 -11.25105,0 -11.25105,0 V 29.026222 h 11.25105 c 5.17474,0 9.33763,4.275401 9.33763,9.338376" /><path
       id="path45"
       style="fill:#000000;fill-opacity:1;fill-rule:nonzero;stroke:none;stroke-width:0.75007033"
       d="m 184.29303,36.564429 v -9.450136 h -18.676 V 10.23846 h 18.676 V 0.90008479 H 156.16689 V 36.57568 l 28.12614,-0.01125" /><path
       id="path47"
       style="fill:#000000;fill-opacity:1;fill-rule:nonzero;stroke:none;stroke-width:0.75007033"
       d="m 211.91512,10.23846 h 18.67675 V 0.90008479 H 202.46499 V 57.15311 h 9.45013 V 10.23846" /><path
       id="path49"
       style="fill:#000000;fill-opacity:1;fill-rule:nonzero;stroke:none;stroke-width:0.75007033"
       d="m 260.15515,58.053194 c 13.3505,0 20.67343,-13.050474 20.67343,-29.026972 C 280.82858,13.050474 273.50565,3.5559084e-7 260.15515,3.5559084e-7 246.92391,3.5559084e-7 239.48096,13.050474 239.48096,29.026222 c 0,15.976498 7.44295,29.026972 20.67419,29.026972 z m 0,-48.7148182 c 5.67053,0 10.27821,8.8875832 10.27821,19.6878462 0,10.801013 -4.60768,19.689346 -10.27821,19.689346 -5.55202,0 -10.27747,-8.888333 -10.27747,-19.689346 0,-10.800263 4.72545,-19.6878462 10.27747,-19.6878462" /><path
       id="path51"
       style="fill:#000000;fill-opacity:1;fill-rule:nonzero;stroke:none;stroke-width:0.75007033"
       d="m 327.14018,57.15311 h 8.85983 V 0.90008479 h -7.44295 L 305.40239,36.78945 V 0.90008479 h -8.86058 V 57.15311 h 7.4422 L 327.14018,21.263744 V 57.15311" /><path
       id="path53"
       style="fill:#244ca6;fill-opacity:1;fill-rule:nonzero;stroke:none;stroke-width:0.75007033"
       d="m 156.16689,47.826735 v 9.326375 h 28.12614 v -9.338376 l -28.12614,0.012" /></g></svg>